<svg xmlns="http://www.w3.org/2000/svg" viewBox="0 0 16 16">
<path d="M3.33333 1.5C3.60948 1.5 3.83333 1.72386 3.83333 2V2.83333H4.66667C4.94281 2.83333 5.16667 3.05719 5.16667 3.33333C5.16667 3.60948 4.94281 3.83333 4.66667 3.83333H3.83333V4.66667C3.83333 4.94281 3.60948 5.16667 3.33333 5.16667C3.05719 5.16667 2.83333 4.94281 2.83333 4.66667V3.83333H2C1.72386 3.83333 1.5 3.60948 1.5 3.33333C1.5 3.05719 1.72386 2.83333 2 2.83333H2.83333V2C2.83333 1.72386 3.05719 1.5 3.33333 1.5Z" fill="currentColor"></path>
<path d="M4.5 11.3333C4.5 11.0572 4.27614 10.8333 4 10.8333C3.72386 10.8333 3.5 11.0572 3.5 11.3333V11.8333H3C2.72386 11.8333 2.5 12.0572 2.5 12.3333C2.5 12.6095 2.72386 12.8333 3 12.8333H3.5V13.3333C3.5 13.6095 3.72386 13.8333 4 13.8333C4.27614 13.8333 4.5 13.6095 4.5 13.3333V12.8333H5C5.27614 12.8333 5.5 12.6095 5.5 12.3333C5.5 12.0572 5.27614 11.8333 5 11.8333H4.5V11.3333Z" fill="currentColor"></path>
<path fill-rule="evenodd" clip-rule="evenodd" d="M9.80449 3.14661C9.72829 2.95732 9.54472 2.83333 9.34067 2.83333C9.13662 2.83333 8.95304 2.95732 8.87684 3.14661L7.85351 5.68861C7.70097 6.06771 7.40045 6.3681 7.02188 6.51993L4.55097 7.51351C4.36334 7.55807 4.21374 7.70881 4.17577 7.905C4.13027 8.14015 4.25791 8.37454 4.48013 8.4639L7.00669 9.47986C7.38603 9.63249 7.68641 9.93256 7.83881 10.3113L8.86217 12.8534C8.93837 13.0427 9.12195 13.1667 9.326 13.1667C9.53005 13.1667 9.71362 13.0427 9.78983 12.8534L10.8132 10.3114C10.9657 9.93229 11.2662 9.6319 11.6448 9.48007L14.1158 8.48645C14.2681 8.45005 14.401 8.34288 14.4639 8.18654C14.5669 7.93033 14.4427 7.63912 14.1865 7.5361L11.66 6.52014C11.2807 6.36749 10.9802 6.0674 10.8279 5.68869L9.80449 3.14661ZM7.37987 8.5521L6.0142 8.00295L7.39412 7.44807C8.0261 7.19455 8.52705 6.69353 8.78116 6.06206L9.34067 4.67222L9.90014 6.06198C10.1544 6.69386 10.6554 7.19384 11.2867 7.44786L12.6525 7.99705L11.2725 8.55193C10.6407 8.80548 10.1396 9.30655 9.88551 9.93794L9.326 11.3278L8.76652 9.93802C8.51225 9.30614 8.01117 8.80612 7.37987 8.5521Z" fill="currentColor"></path>
</svg>